<svg width="137" height="54" viewBox="0 0 137 54" fill="none" xmlns="http://www.w3.org/2000/svg">
<path d="M51.4016 37.9398H60.2087V43H44.7963V15.6902H51.4016V37.9398ZM73.3243 21.1754C75.4617 21.1754 77.3674 21.626 79.0412 22.5273C80.7409 23.4029 82.0671 24.6776 83.0199 26.3515C83.9985 28.0254 84.4877 29.9825 84.4877 32.2229C84.4877 34.4633 83.9985 36.4204 83.0199 38.0943C82.0671 39.7682 80.7409 41.0558 79.0412 41.9571C77.3674 42.8326 75.4617 43.2704 73.3243 43.2704C71.1869 43.2704 69.2684 42.8326 67.5688 41.9571C65.8692 41.0558 64.5301 39.7682 63.5515 38.0943C62.5987 36.4204 62.1223 34.4633 62.1223 32.2229C62.1223 29.9825 62.5987 28.0254 63.5515 26.3515C64.5301 24.6776 65.8692 23.4029 67.5688 22.5273C69.2684 21.626 71.1869 21.1754 73.3243 21.1754ZM73.3243 26.8923C72.0625 26.8923 70.9938 27.3558 70.1182 28.2829C69.2684 29.1842 68.8435 30.4975 68.8435 32.2229C68.8435 33.9483 69.2684 35.2616 70.1182 36.1629C70.9938 37.0642 72.0625 37.5149 73.3243 37.5149C74.5862 37.5149 75.642 37.0642 76.4918 36.1629C77.3416 35.2616 77.7665 33.9483 77.7665 32.2229C77.7665 30.4975 77.3416 29.1842 76.4918 28.2829C75.642 27.3558 74.5862 26.8923 73.3243 26.8923ZM96.102 21.1754C97.7501 21.1754 99.1665 21.5488 100.351 22.2956C101.536 23.0424 102.411 24.0596 102.978 25.3472V21.4458H109.544V42.8841C109.544 44.8928 109.158 46.6954 108.386 48.292C107.613 49.9144 106.428 51.202 104.832 52.1548C103.235 53.1076 101.252 53.584 98.8832 53.584C95.6385 53.584 93.0375 52.8115 91.0804 51.2664C89.149 49.747 87.9902 47.674 87.6039 45.0473H94.132C94.338 45.9229 94.8015 46.6053 95.5226 47.0946C96.2694 47.5839 97.2351 47.8285 98.4197 47.8285C99.7845 47.8285 100.879 47.4293 101.703 46.631C102.553 45.8585 102.978 44.6095 102.978 42.8841V39.0986C102.411 40.3862 101.536 41.4034 100.351 42.1502C99.1665 42.897 97.7501 43.2704 96.102 43.2704C94.3251 43.2704 92.7285 42.8326 91.3122 41.9571C89.9216 41.0558 88.8143 39.7682 87.9902 38.0943C87.1919 36.4204 86.7927 34.4633 86.7927 32.2229C86.7927 29.9567 87.1919 27.9996 87.9902 26.3515C88.8143 24.6776 89.9216 23.4029 91.3122 22.5273C92.7285 21.626 94.3251 21.1754 96.102 21.1754ZM98.2265 26.9695C96.8102 26.9695 95.6642 27.4331 94.7887 28.3601C93.9389 29.2872 93.514 30.5748 93.514 32.2229C93.514 33.871 93.9389 35.1586 94.7887 36.0857C95.6642 37.0127 96.8102 37.4763 98.2265 37.4763C99.6171 37.4763 100.75 36.9999 101.626 36.047C102.527 35.0942 102.978 33.8195 102.978 32.2229C102.978 30.6005 102.527 29.3258 101.626 28.3988C100.75 27.4459 99.6171 26.9695 98.2265 26.9695ZM124.174 21.1754C126.311 21.1754 128.217 21.626 129.891 22.5273C131.591 23.4029 132.917 24.6776 133.87 26.3515C134.848 28.0254 135.337 29.9825 135.337 32.2229C135.337 34.4633 134.848 36.4204 133.87 38.0943C132.917 39.7682 131.591 41.0558 129.891 41.9571C128.217 42.8326 126.311 43.2704 124.174 43.2704C122.037 43.2704 120.118 42.8326 118.419 41.9571C116.719 41.0558 115.38 39.7682 114.401 38.0943C113.448 36.4204 112.972 34.4633 112.972 32.2229C112.972 29.9825 113.448 28.0254 114.401 26.3515C115.38 24.6776 116.719 23.4029 118.419 22.5273C120.118 21.626 122.037 21.1754 124.174 21.1754ZM124.174 26.8923C122.912 26.8923 121.844 27.3558 120.968 28.2829C120.118 29.1842 119.693 30.4975 119.693 32.2229C119.693 33.9483 120.118 35.2616 120.968 36.1629C121.844 37.0642 122.912 37.5149 124.174 37.5149C125.436 37.5149 126.492 37.0642 127.342 36.1629C128.191 35.2616 128.616 33.9483 128.616 32.2229C128.616 30.4975 128.191 29.1842 127.342 28.2829C126.492 27.3558 125.436 26.8923 124.174 26.8923Z" fill="#171725"/>
<circle cx="14.1724" cy="28.3449" r="14.1724" fill="#6D42D8"/>
</svg>
