<svg width="36" height="36" viewBox="0 0 36 36" fill="none" xmlns="http://www.w3.org/2000/svg">
<circle cx="18" cy="18" r="18" fill="url(#paint0_linear_9_44)"/>
<g clip-path="url(#clip0_9_44)">
<path d="M9.64994 16.5255C9.56116 16.5551 9.48245 16.609 9.42279 16.6811C9.36313 16.7532 9.32489 16.8406 9.31244 16.9334C9.29999 17.0261 9.31382 17.1205 9.35236 17.2058C9.3909 17.2911 9.4526 17.3638 9.53044 17.4158L13.952 19.8532C14.0344 19.8986 14.1279 19.9198 14.2219 19.9144C14.3158 19.9091 14.4063 19.8773 14.483 19.8228L19.1803 16.4732C19.4073 16.3212 19.6788 16.5927 19.5268 16.8197L16.1772 21.517C16.1227 21.5937 16.0909 21.6842 16.0856 21.7781C16.0802 21.8721 16.1014 21.9656 16.1468 22.048L18.5842 26.4696C18.6362 26.5474 18.7089 26.6091 18.7942 26.6476C18.8795 26.6862 18.9739 26.7 19.0666 26.6876C19.1594 26.6751 19.2468 26.6369 19.3189 26.5772C19.391 26.5175 19.4449 26.4388 19.4745 26.3501L24.0707 12.5615C24.0999 12.4734 24.1041 12.379 24.0828 12.2887C24.0614 12.1984 24.0153 12.1159 23.9497 12.0503C23.8841 11.9847 23.8016 11.9386 23.7113 11.9172C23.621 11.8959 23.5266 11.9001 23.4385 11.9293L9.64994 16.5255Z" fill="white"/>
</g>
<defs>
<linearGradient id="paint0_linear_9_44" x1="0.237965" y1="0.236832" x2="19.2156" y2="43.1625" gradientUnits="userSpaceOnUse">
<stop stop-color="#9E77FF"/>
<stop offset="1" stop-color="#4C12DC"/>
</linearGradient>
<clipPath id="clip0_9_44">
<rect width="16" height="16" fill="white" transform="translate(7.68628 17) rotate(-45)"/>
</clipPath>
</defs>
</svg>
